PathFileType	4	(X/Y/Z)	59_2_3_p0_0-282.trc
DataRate	CameraRate	NumFrames	NumMarkers	Units	OrigDataRate	OrigDataStartFrame	OrigNumFrames
50.0	50.0	5	27	m	50.0	176	283
Frame#	Time	RHip			RKnee			RAnkle			RBigToe			RSmallToe			RHeel			LHip			LKnee			LAnkle			LBigToe			LSmallToe			LHeel			Neck			Head			Nose			RShoulder			RElbow			RWrist			RThumb			RIndex			RPinky			LShoulder			LElbow			LWrist			LThumb			LIndex			LPinky			
		X1	Y1	Z1	X2	Y2	Z2	X3	Y3	Z3	X4	Y4	Z4	X5	Y5	Z5	X6	Y6	Z6	X7	Y7	Z7	X8	Y8	Z8	X9	Y9	Z9	X10	Y10	Z10	X11	Y11	Z11	X12	Y12	Z12	X13	Y13	Z13	X14	Y14	Z14	X15	Y15	Z15	X16	Y16	Z16	X17	Y17	Z17	X18	Y18	Z18	X19	Y19	Z19	X20	Y20	Z20	X21	Y21	Z21	X22	Y22	Z22	X23	Y23	Z23	X24	Y24	Z24	X25	Y25	Z25	X26	Y26	Z26	X27	Y27	Z27	
176	3.52	0.308863237721931	0.4331068406569872	0.9362208851934903	0.2880912222538762	0.570798387502286	1.4177756155109473	0.28096570092286116	0.7721067980700063	1.8865686393206382	0.2676466314964569	0.5253984770512669	1.9227935118915502	0.32374877372063793	0.5963959083415137	1.9322015743433671	0.2786904854220123	0.8434260436833324	1.9597618571069748	0.08198083546881707	0.4799676203586473	0.9594841501082185	0.10538314172566843	0.6178918152372246	1.427150226720845	0.1268039857326024	0.7299605618417436	1.8565805889691473	0.1267384595324897	0.5309582554192739	1.917488015128972	0.06721965899910978	0.6049743650369013	1.9236462543438284	0.15115293259615747	0.8362993292488387	1.9475770542937894	0.19962143890536183	0.31076520561073057	0.3708102623391203	0.19526315007130884	0.2001145823994166	0.12830540182239375	0.2040957987923305	0.13758809360342528	0.26861715135637865	0.35969118501980857	0.37906878159519236	0.45611958663493457	0.40826619722631774	0.45077618790789314	0.7588163433833248	0.35307474064637984	0.20970833475407943	0.6471348887437837	0.3183654766343273	0.12151473320530742	0.5783021697436986	0.31886558050408303	0.09679984710517099	0.5787475942169533	0.31595937801919344	0.05535602378602609	0.6116775448500567	0.02616882239794202	0.35750036244521544	0.4676845773815431	-0.009565655124918868	0.47122824553634723	0.7754669768195561	0.019735573882082476	0.42452474960972114	1.0646041993592588	0.10066561094002324	0.3900482822227429	1.1613286192990886	0.0936012947500798	0.3792677839004636	1.1819754990904536	0.014478805226049614	0.4237972157969854	1.1940427472811952
177	3.54	0.3088713551035921	0.4331243833853736	0.9362142305029778	0.28842351545152917	0.5698444593825146	1.4211616975677617	0.28094901663797933	0.771937408463157	1.8867429490115817	0.26780441622531187	0.5233616428864365	1.9260582156736834	0.3236392161894263	0.5958878295257685	1.9322027072445271	0.27866856125542283	0.8435457594323212	1.9597943367742199	0.08202043418217446	0.4799334063915199	0.9595569721785412	0.10624781949880859	0.6165077081346357	1.4231876199423033	0.1267234817164763	0.7299752489072932	1.856590669689321	0.12671404286869403	0.5309018587983624	1.9175225801186262	0.06723591113639353	0.6048683662058042	1.923626859556827	0.1502926294555989	0.8339360417893362	1.943430797331078	0.1996046587208725	0.31075997592470816	0.37089237451007584	0.1950728531180472	0.19906352031319055	0.1250271221054021	0.20400697877140747	0.1376067700109751	0.26852353719698924	0.35967746484325647	0.37903212212542353	0.45614610666689615	0.412159481341686	0.46315710668301807	0.7593872934279339	0.35312003979533957	0.20953316966780922	0.6469893945611758	0.3148848642237303	0.11221489315424225	0.57858264941285	0.3191095615397908	0.09685978074550083	0.5787594020196858	0.3162932653038327	0.05493557772498755	0.6117662401484943	0.026108385691414753	0.3575238711435851	0.4677163562978795	-0.009546538469996292	0.47110869943163736	0.7754711092677721	0.01930753351670792	0.4224362533670789	1.0607064820189367	0.09827613435884737	0.37804826803187286	1.1623680585600447	0.09364205262404249	0.37922143714612283	1.1820971380168395	0.017960763527545515	0.4354897751049249	1.1925111375866668
178	3.56	0.30891449270047733	0.43315224514132294	0.936201919657669	0.2932834873328166	0.5541293337889798	1.4125025480768032	0.28096136730371857	0.7717700515016624	1.886866665516916	0.2678798410779655	0.5235761288910221	1.926195011101092	0.3238190862518653	0.5960211540630544	1.9323893360683093	0.2786866587494198	0.8433723913819917	1.9598926454698054	0.08255333376469422	0.47892462898703214	0.9561654853790079	0.10622242591394704	0.6167074846918995	1.423464195330096	0.12768312334682239	0.7330583682883948	1.8622054022619325	0.1299413953505765	0.5444652375874784	1.9232960050881656	0.07210905668160619	0.5905669592048053	1.917431616769065	0.15116553536157304	0.8367011888894688	1.947675402399279	0.1956416527864965	0.30902983801635664	0.3710103570692317	0.19509570098190984	0.20022769204207624	0.12821173388900067	0.20394152511415678	0.13784306128315482	0.26845840795464027	0.35966173215210195	0.3790157463608172	0.4560402565356594	0.4121380481977033	0.46314793873050364	0.7593655234504267	0.3531135402574912	0.20941984435629324	0.6469106681200676	0.3183316407794185	0.1224219206914487	0.5844833070960573	0.3186778986001849	0.0965975643916159	0.5809036499338471	0.31617547610247215	0.0546312368483784	0.611751642304653	0.02605127783399822	0.35729014666325554	0.467547394989119	-0.00953581273340054	0.47109175126808855	0.7753739017328493	0.019245391316872373	0.42238710582994177	1.0606344595330328	0.0982675776749628	0.37794507806950045	1.1622566511248726	0.09361342750765844	0.3790523764874573	1.1818361314599337	0.01527499116795265	0.4227670964654182	1.1898943261519073
179	3.58	0.308904124459254	0.43322865682869316	0.9362240325243447	0.29243422428758403	0.5549228520551278	1.4170876262298375	0.28096332724096423	0.7716992892479515	1.8868490319726337	0.26454221129067906	0.5116425202042533	1.9209662035183366	0.3239348412372651	0.5962208816270371	1.9322850689591293	0.2786891929767381	0.8432933218955723	1.9600055398527803	0.08200394924777175	0.48001638329391527	0.959500555603912	0.10630229294685752	0.6166222313647277	1.4235449690647797	0.12772949581972073	0.7329615428049662	1.8621850107195144	0.12674997617010425	0.530741798167608	1.9175784442765083	0.07216392103630151	0.5904876256292847	1.917386848754381	0.15120383878691235	0.8367028257058953	1.9477535463595608	0.19564631898843773	0.30907273783730005	0.3709720169110029	0.19163442237443296	0.1981328586002345	0.12522719165619892	0.20025854045997382	0.13635131722916138	0.2686510256071701	0.3597055925859258	0.3791441683019113	0.45599427352424093	0.42053475140788893	0.47668893399138607	0.7599541355379911	0.3533064977475721	0.20901718729492388	0.6503038140759563	0.3145707784762003	0.11274104441965607	0.5821420465253059	0.3188324478572413	0.09614791510585347	0.5809772673716355	0.3159675302554608	0.05483110852040892	0.6117017482161589	0.026137110631045533	0.35746136945040763	0.46768055925143476	-0.00952990794582232	0.4710928651905818	0.7753717745194615	0.01920522545677615	0.4223491549979542	1.0606007462540339	0.0979421487212687	0.37879600871546665	1.1588415980838116	0.09358117176263477	0.37886885973459433	1.1815948116108876	0.018027872169709143	0.4350104212288885	1.1920732274995984
180	3.6	0.305067957415004	0.4468471270467768	0.9378738478527021	0.2884685078024216	0.5699693138414856	1.4212303380733968	0.2799992495972144	0.7735321010755936	1.891946471664258	0.26396352187299604	0.5220082649585202	1.9251025653416296	0.3240880761819868	0.597088514109399	1.9321395469242393	0.2747405036394505	0.8275380513751021	1.9532941379909068	0.08201200209147036	0.47992779340205066	0.9594188145917094	0.10556274156579289	0.6177874273036086	1.4274835618412371	0.12627330650742286	0.7640611438008182	1.874167624466926	0.13130976246158707	0.5329876031590619	1.9184641838606782	0.07222367031113068	0.5906770691211497	1.9174325722640388	0.1509988017637218	0.8368841081116316	1.9476912438332095	0.19169616692151864	0.32155175332956937	0.3704803662242086	0.18777516083045206	0.2086423690307443	0.12627762734581957	0.20011044922554608	0.14885417785691335	0.26709999633482573	0.35976736739069565	0.3784393879414548	0.45230200152535954	0.41182225318954857	0.4646437576913449	0.7554705787220121	0.3567183965136758	0.21985480871651294	0.6472131303926424	0.31082110179605094	0.12330529031895562	0.5886831923479973	0.3159482341160475	0.10801957885960266	0.587861467734138	0.3234765251725324	0.06526305349711581	0.6146763788525961	0.025982624910406038	0.3575349065144779	0.4677438485585515	-0.00947460174623434	0.4712429943402341	0.7757077190622539	0.019112334767320945	0.422320604651073	1.0606193204735532	0.0981197935679549	0.3774954274867577	1.1618998814530166	0.09006441289358548	0.3649047056053573	1.17504811558394	0.017452893685602575	0.43622371531081766	1.1963813727064891
